# xmcd
#
# Track frame offsets: 
#        150
#        20962
#        40416
#        59652
#        78435
#        97872
#        114836
#        132356
#        151331
#        170419
#        196717
#
# Disc length: 2869 seconds
#
# Revision: 4
# Processed by: cddbd v1.5.2PL0 Copyright (c) Steve Scherf et al.
# Submitted via: ExactAudioCopy v0.95b3
#
DISCID=8a0b330b
DTITLE=蔡健雅 - 雙棲動物
DYEAR=2005
DGENRE=Pop
TTITLE0=雙棲動物
TTITLE1=假想敵
TTITLE2=一分鐘追悔
TTITLE3=優先權
TTITLE4=下一次愛情來的時候
TTITLE5=再見
TTITLE6=二手煙
TTITLE7=塵埃
TTITLE8=坐立不安
TTITLE9=失憶症
TTITLE10=原點
EXTD=YEAR: 2005\n
EXTT0=
EXTT1=
EXTT2=
EXTT3=
EXTT4=
EXTT5=
EXTT6=
EXTT7=
EXTT8=
EXTT9=
EXTT10=
PLAYORDER=
